# xmcd
# Track frame offsets:
# 150
# 17655
# 32212
# 48361
# 65083
# 77439
# 91492
# 109908
# 124710
# 139049
# 154869
# 167866
# 178684
# 194373
# 206926
# 219979
#
# Disc length: 3102 seconds
# Revision: 1
# Processed by: cddbd v1.5.2PL0 Copyright (c) Steve Scherf et al.
# Submitted via: VisiTrax 2.11.3.279 - For more info visit www.synapsa.com
#
DISCID=e40c1c10
DTITLE=Slim Dusty - Side By Side (The Dusty Collaborations)
DYEAR=2002
DGENRE=Australian Country
TTITLE0=Anne Kirkpatrick With Slim Dusty - Two Singers (One Song)
TTITLE1=Troy Cassar-Daley With Slim Dusty - The Biggest Dissappointment
TTITLE2=Buddy Williams With Slim Dusty - By A Fire Of Gidgee Coal
TTITLE3=Kasey Chambers With Slim Dusty - Matilda No More
TTITLE4=Smoky Dawson With Slim Dusty - We're Just A Coupla Boys From The Bush
TTITLE5=Don Walker With Slim Dusty - Charleville
TTITLE6=The Bushwackers, Lee Kernaghan and Tommy Emmanual With Slim Dusty - Whe
TTITLE6=n The Rain Tumbles Down In July
TTITLE7=Keith Urban With Slim Dusty - Lights On The Hill
TTITLE8=David Kirkpatrick With Slim Dusty - When The Currawongs Come Down
TTITLE9=Rolf Harris With Slim Dusty - Duncan
TTITLE10=Joy Mckean With Slim Dusty - Sunset Years Of Life
TTITLE11=John Laws With Slim Dusty - Country Revival
TTITLE12=Gordon Parsons With Slim Dusty - Pub With No Beer
TTITLE13=Shorty Ranger With slim Dusty - Riding Thru The Valley In Spring
TTITLE14=Kate Arneman With Slim Dusty - Christmas, When I Was Big As You
TTITLE15=The Wiggles With Slim Dusty - I Love To Have A Dance With Dorothy
EXTD=2002 EMI Music Australia
EXTT0=
EXTT1=
EXTT2=
EXTT3=
EXTT4=
EXTT5=
EXTT6=
EXTT7=
EXTT8=
EXTT9=
EXTT10=
EXTT11=
EXTT12=
EXTT13=
EXTT14=
EXTT15=
PLAYORDER=
